<svg width="480" height="724" viewBox="0 0 480 724" fill="none" xmlns="http://www.w3.org/2000/svg">
<path fill-rule="evenodd" clip-rule="evenodd" d="M36.147 0.031704C156.007 -2.39542 207.487 135.011 246.127 248.498C287.413 369.758 339.459 516.459 239.064 596.016C131.008 681.646 -28.1886 638.883 -131.976 548.126C-213.019 477.258 -180.767 359.427 -149.196 256.503C-114.998 145.017 -80.4421 2.39258 36.147 0.031704Z" fill="white" fill-opacity="0.5"/>
<path fill-rule="evenodd" clip-rule="evenodd" d="M219.147 81.0317C339.007 78.6046 390.487 216.011 429.127 329.498C470.413 450.758 522.459 597.459 422.064 677.016C314.008 762.646 154.811 719.883 51.024 629.126C-30.0186 558.258 2.23336 440.427 33.8044 337.503C68.0017 226.017 102.558 83.3926 219.147 81.0317Z" fill="white" fill-opacity="0.6"/>
</svg>
